# xmcd
#
# Track frame offsets: 
#        150
#        689
#        12597
#        23687
#        31927
#        44696
#        56487
#        68651
#        82681
#        98618
#        111631
#        125896
#        138250
#        149955
#        158897
#        170560
#        183737
#        197317
#        219745
#        235030
#        251407
#        267714
#        280759
#        288638
#        298564
#
# Disc length: 4384 seconds
#
# Revision: 2
# Processed by: cddbd v1.5.2PL0 Copyright (c) Steve Scherf et al.
# Submitted via: ExactAudioCopyFreeDBPlugin 1.0
#
DISCID=7c111e19
DTITLE=Doctor's Order - How Sweet It Is
DYEAR=2004
DGENRE=Blues
TTITLE0=introduction by D.J.Nite
TTITLE1=Rockin' My Life Away
TTITLE2=What The Heck!
TTITLE3=Havin' A Good Time
TTITLE4=The Real Thing
TTITLE5=Wham Bam With The Medicine Man
TTITLE6=How Do You Sleep At Night
TTITLE7=I Can Tell
TTITLE8=Tanqueray
TTITLE9=So It Is
TTITLE10=Holy Moly
TTITLE11=No Mo Do Yakamo
TTITLE12=Drinkin' Wine Spo-Dee-O-Dee
TTITLE13=Talkin' 'Bout You
TTITLE14=Down At The Doctors
TTITLE15=Baby Jump
TTITLE16=Los Mas Rapidos Muchachos
TTITLE17=Doctor's Order Boogie
TTITLE18=Doctor In Disguise
TTITLE19=Great Balls Of Fire - Tequila
TTITLE20=Route 66
TTITLE21=A Cat In A Pot
TTITLE22=She's A Wind-Up
TTITLE23=Money Talks Bullshit Walks
TTITLE24=Honey Hush
EXTD=
EXTT0=
EXTT1=
EXTT2=
EXTT3=
EXTT4=
EXTT5=
EXTT6=
EXTT7=
EXTT8=
EXTT9=
EXTT10=
EXTT11=
EXTT12=
EXTT13=
EXTT14=
EXTT15=
EXTT16=
EXTT17=
EXTT18=
EXTT19=
EXTT20=
EXTT21=
EXTT22=
EXTT23=
EXTT24=
PLAYORDER=
